<svg xmlns="http://www.w3.org/2000/svg" width="18" height="15" viewBox="0 0 18 15">
  <path fill="#FFFFFF" fill-rule="evenodd" d="M16.1999885,2 C17.1941074,2 18,2.96050137 18,4 L18,13.1195075 C18,14.1580748 17.1916089,15 16.1999885,15 L1.80001149,15 C0.805892594,15 0,14.1590061 0,13.1195075 L0,1.24975936 C0,0.559536327 0.538236076,0 1.2035152,0 L5.40298255,0 C6.6313955,0 7.68719349,0.897546749 8.14999455,2 L16.1999885,2 Z M11.5968,4.655 C11.0303972,4.34499845 10.3536039,4.19 9.5664,4.19 C8.4271943,4.19 7.48320374,4.4599973 6.7344,5 C5.98559626,5.5400027 5.43680174,6.21166265 5.088,7.015 C4.73919826,7.81833735 4.5648,8.6166627 4.5648,9.41 C4.5648,10.1900039 4.73119834,10.8849969 5.064,11.495 C5.39680166,12.105003 5.86719696,12.5799983 6.4752,12.92 C7.08320304,13.2600017 7.787196,13.43 8.5872,13.43 C9.29120352,13.43 10.0047964,13.296668 10.728,13.03 L10.5168,12.1 C9.88319683,12.3333345 9.26880298,12.45 8.6736,12.45 C8.0527969,12.45 7.52000222,12.3183346 7.0752,12.055 C6.63039778,11.7916653 6.29280115,11.4300023 6.0624,10.97 C5.83199885,10.5099977 5.7168,9.9866696 5.7168,9.4 C5.7168,8.7399967 5.83839878,8.0866699 6.0816,7.44 C6.32480122,6.7933301 6.72799718,6.25166885 7.2912,5.815 C7.85440282,5.37833115 8.59039546,5.16 9.4992,5.16 C10.3760044,5.16 11.0447977,5.3733312 11.5056,5.8 C11.9664023,6.2266688 12.1968,6.839996 12.1968,7.64 C12.1968,8.0266686 12.1552004,8.4266646 12.072,8.84 C11.9887996,9.2533354 11.8544009,9.60499855 11.6688,9.895 C11.4831991,10.1850014 11.2464014,10.33 10.9584,10.33 C10.8047992,10.33 10.6960003,10.2866671 10.632,10.2 C10.5679997,10.1133329 10.536,9.9866675 10.536,9.82 C10.536,9.7266662 10.5392,9.6533336 10.5456,9.6 L10.9104,6.71 C10.4431977,6.4166652 9.93440275,6.27 9.384,6.27 C8.79519706,6.27 8.31360187,6.43166505 7.9392,6.755 C7.56479813,7.07833495 7.29440083,7.4799976 7.128,7.96 C6.96159917,8.4400024 6.8784,8.9233309 6.8784,9.41 C6.8784,9.943336 7.00479874,10.3683317 7.2576,10.685 C7.51040126,11.0016682 7.8767976,11.16 8.3568,11.16 C8.68320163,11.16 8.9663988,11.0700009 9.2064,10.89 C9.4464012,10.7099991 9.64319923,10.4766681 9.7968,10.19 C9.82240013,10.4500013 9.94079894,10.6816656 10.152,10.885 C10.3632011,11.0883343 10.6415983,11.19 10.9872,11.19 C11.5248027,11.19 11.9679983,11.0050018 12.3168,10.635 C12.6656017,10.2649981 12.9199992,9.81166935 13.08,9.275 C13.2400008,8.73833065 13.32,8.2166692 13.32,7.71 C13.32,7.0499967 13.1744015,6.453336 12.8832,5.92 C12.5919985,5.386664 12.1632028,4.96500155 11.5968,4.655 Z M9.1344,10.085 C8.98079923,10.2350008 8.78560118,10.31 8.5488,10.31 C8.17759814,10.31 7.992,10.0500026 7.992,9.53 C7.992,8.9033302 8.09439898,8.34500245 8.2992,7.855 C8.50400102,7.36499755 8.84319763,7.12 9.3168,7.12 C9.51520099,7.12 9.6847993,7.1566663 9.8256,7.23 L9.4992,9.59 C9.40959955,9.7700009 9.28800077,9.93499925 9.1344,10.085 Z" opacity=".6"/>
</svg>
