<svg xmlns="http://www.w3.org/2000/svg" width="60" height="48" viewBox="0 0 60 48">
  <path fill="#75767A" fill-opacity=".5" fill-rule="evenodd" d="M27.1666485,6 L53.9999617,6 C57.3136914,6 60,8.69118038 60,12.017576 L60,41.982424 C60,45.3058395 57.3053629,48 53.9999617,48 L6.0000383,48 C2.68630865,48 0,45.3088196 0,41.982424 L0,3.99922997 C0,1.79051625 1.79412025,0 4.01171732,0 L18.0099418,0 C22.1046517,0 25.6239783,2.4721496 27.1666485,6 L27.1666485,6 Z M38.656,14.896 C36.7679906,13.903995 34.5120131,13.408 31.888,13.408 C28.0906477,13.408 24.9440125,14.2719914 22.448,16 C19.9519875,17.7280086 18.1226725,19.8773205 16.96,22.448 C15.7973275,25.0186795 15.216,27.5733206 15.216,30.112 C15.216,32.6080125 15.7706611,34.8319902 16.88,36.784 C17.9893389,38.7360098 19.5573232,40.2559946 21.584,41.344 C23.6106768,42.4320054 25.95732,42.976 28.624,42.976 C30.9706784,42.976 33.3493213,42.5493376 35.76,41.696 L35.056,38.72 C32.9439894,39.4666704 30.8960099,39.84 28.912,39.84 C26.8426563,39.84 25.0666741,39.4186709 23.584,38.576 C22.1013259,37.7333291 20.9760038,36.5760074 20.208,35.104 C19.4399962,33.6319926 19.056,31.9573427 19.056,30.08 C19.056,27.9679894 19.4613293,25.8773437 20.272,23.808 C21.0826707,21.7386563 22.4266573,20.0053403 24.304,18.608 C26.1813427,17.2106597 28.6346515,16.512 31.664,16.512 C34.5866813,16.512 36.8159923,17.1946598 38.352,18.56 C39.8880077,19.9253402 40.656,21.8879872 40.656,24.448 C40.656,25.6853395 40.5173347,26.9653267 40.24,28.288 C39.9626653,29.6106733 39.5146698,30.7359954 38.896,31.664 C38.2773302,32.5920046 37.4880048,33.056 36.528,33.056 C36.0159974,33.056 35.6533344,32.9173347 35.44,32.64 C35.2266656,32.3626653 35.12,31.957336 35.12,31.424 C35.12,31.1253318 35.1306666,30.8906675 35.152,30.72 L36.368,21.472 C34.8106589,20.5333286 33.1146758,20.064 31.28,20.064 C29.3173235,20.064 27.7120062,20.5813282 26.464,21.616 C25.2159938,22.6506718 24.3146694,23.9359923 23.76,25.472 C23.2053306,27.0080077 22.928,28.5546589 22.928,30.112 C22.928,31.8186752 23.3493291,33.1786616 24.192,34.192 C25.0346709,35.2053384 26.255992,35.712 27.856,35.712 C28.9440054,35.712 29.887996,35.4240029 30.688,34.848 C31.488004,34.2719971 32.1439974,33.5253379 32.656,32.608 C32.7413338,33.4400042 33.1359965,34.1813301 33.84,34.832 C34.5440035,35.4826699 35.4719942,35.808 36.624,35.808 C38.416009,35.808 39.8933275,35.2160059 41.056,34.032 C42.2186725,32.8479941 43.066664,31.3973419 43.6,29.68 C44.133336,27.9626581 44.4,26.2933414 44.4,24.672 C44.4,22.5599894 43.9146715,20.6506752 42.944,18.944 C41.9733285,17.2373248 40.5440094,15.888005 38.656,14.896 Z M30.448,32.272 C29.9359974,32.7520024 29.2853373,32.992 28.496,32.992 C27.2586605,32.992 26.64,32.1600083 26.64,30.496 C26.64,28.4906566 26.9813299,26.7040078 27.664,25.136 C28.3466701,23.5679922 29.4773254,22.784 31.056,22.784 C31.7173366,22.784 32.2826643,22.9013322 32.752,23.136 L31.664,30.688 C31.3653318,31.2640029 30.9600026,31.7919976 30.448,32.272 Z"/>
</svg>
